<svg width="25" height="25" viewBox="0 0 25 25" fill="none" xmlns="http://www.w3.org/2000/svg">
<path d="M7.48778 16.6999C7.52179 16.8214 7.5797 16.9352 7.65819 17.0346C7.73668 17.134 7.83422 17.2172 7.94523 17.2793C8.05625 17.3415 8.17856 17.3814 8.3052 17.3969C8.43183 17.4123 8.56031 17.403 8.68329 17.3694C8.80626 17.3357 8.92134 17.2785 9.02194 17.2009C9.12254 17.1234 9.20669 17.027 9.26959 16.9173C9.3325 16.8076 9.37292 16.6867 9.38855 16.5615C9.40418 16.4364 9.39472 16.3094 9.3607 16.1879L7.48778 16.6999ZM1.91045 3.208C1.78699 3.17236 1.6576 3.16131 1.52978 3.17548C1.40196 3.18965 1.27826 3.22877 1.16586 3.29056C1.05346 3.35235 0.954596 3.43559 0.875003 3.53544C0.795409 3.63529 0.736672 3.74977 0.702199 3.87223C0.667726 3.99469 0.658203 4.1227 0.674184 4.24883C0.690165 4.37496 0.731331 4.49669 0.795293 4.60697C0.859255 4.71725 0.944741 4.81388 1.04679 4.89126C1.14884 4.96863 1.26542 5.0252 1.38976 5.0577L1.91045 3.208ZM23.9141 17.2887C24.0406 17.2598 24.1599 17.2061 24.2651 17.1309C24.3702 17.0556 24.459 16.9603 24.5262 16.8505C24.5935 16.7408 24.6378 16.6188 24.6565 16.4918C24.6752 16.3649 24.668 16.2355 24.6353 16.1113C24.6026 15.9872 24.545 15.8707 24.4659 15.7689C24.3869 15.6672 24.288 15.582 24.1752 15.5187C24.0623 15.4553 23.9377 15.4149 23.8088 15.3999C23.6798 15.3849 23.5492 15.3956 23.4245 15.4313L23.9141 17.2887ZM10.9733 19.6364C11.3748 21.07 10.494 22.5844 8.93456 22.985L9.42287 24.8424C11.9836 24.1857 13.5482 21.6397 12.8462 19.1243L10.9733 19.6364ZM8.93456 22.985C7.36473 23.3882 5.78971 22.4871 5.38559 21.0406L3.51267 21.5526C4.2121 24.0551 6.87253 25.4978 9.42287 24.8424L8.93456 22.985ZM5.38559 21.0406C4.98407 19.6069 5.86483 18.0926 7.42431 17.6919L6.936 15.8358C4.3753 16.4925 2.80935 19.0373 3.51267 21.5526L5.38559 21.0406ZM7.42431 17.6919C8.99415 17.2887 10.5692 18.1899 10.9733 19.6364L12.8462 19.1243C12.1468 16.6218 9.48634 15.1792 6.936 15.8346L7.42431 17.6919ZM9.3607 16.1879L6.57333 6.21615L4.70041 6.72818L7.48778 16.6999L9.3607 16.1879ZM4.11755 3.81219L1.91045 3.208L1.38976 5.0577L3.59816 5.66317L4.11755 3.81219ZM6.57333 6.21615C6.40865 5.64011 6.09594 5.11597 5.66561 4.69472C5.23528 4.27347 4.70197 3.96944 4.11755 3.81219L3.60075 5.66317C4.15123 5.81421 4.56052 6.22768 4.70041 6.72818L6.57333 6.21615ZM12.1558 20.3097L23.9141 17.2887L23.4258 15.4313L11.6662 18.4523L12.1558 20.3097Z" fill="#8696BB"/>
<path opacity="0.5" d="M10.1552 8.33452C9.52703 6.088 9.21358 4.96411 9.74722 4.07958C10.2796 3.19378 11.4518 2.89296 13.7962 2.29005L16.283 1.65258C18.6274 1.05095 19.7996 0.748852 20.7231 1.2596C21.6466 1.77162 21.9614 2.89424 22.5883 5.14204L23.2553 7.52552C23.8835 9.77203 24.1983 10.8959 23.6646 11.7817C23.131 12.6663 21.9588 12.9684 19.6144 13.57L17.1275 14.2087C14.7831 14.8104 13.6109 15.1112 12.6874 14.6004C11.7639 14.0884 11.4505 12.9658 10.8223 10.7193L10.1552 8.33452Z" stroke="#8696BB" stroke-width="1.5"/>
</svg>
